  0
SECTION
  2
HEADER
  9
$ACADVER
  1
AC1009
  9
$FILLMODE
 70
1
  9
$EXTMIN
 10
0.0000
 20
0.0000
 30
0.0000
  9
$EXTMAX
 10
128.5240
 20
80.7720
 30
0.0000
  0
ENDSEC
  0
SECTION
  2
TABLES
  0
TABLE
  2
LTYPE
 70
1
  0
LTYPE
  2
CONTINUOUS
 70
64
  3
Solid line
 72
65
 73
0
 40
0
  0
ENDTAB
  0
TABLE
  2
LAYER
 70
255
  0
LAYER
  2
1
 70
64
 62
22
  6
CONTINUOUS
  0
LAYER
  2
16
 70
64
 62
175
  6
CONTINUOUS
  0
LAYER
  2
17
 70
64
 62
82
  6
CONTINUOUS
  0
LAYER
  2
18
 70
64
 62
82
  6
CONTINUOUS
  0
LAYER
  2
19
 70
64
 62
53
  6
CONTINUOUS
  0
LAYER
  2
20
 70
64
 62
7
  6
CONTINUOUS
  0
LAYER
  2
21
 70
64
 62
253
  6
CONTINUOUS
  0
LAYER
  2
22
 70
64
 62
253
  6
CONTINUOUS
  0
LAYER
  2
23
 70
64
 62
7
  6
CONTINUOUS
  0
LAYER
  2
24
 70
64
 62
7
  6
CONTINUOUS
  0
LAYER
  2
25
 70
64
 62
253
  6
CONTINUOUS
  0
LAYER
  2
26
 70
64
 62
253
  6
CONTINUOUS
  0
LAYER
  2
27
 70
64
 62
253
  6
CONTINUOUS
  0
LAYER
  2
28
 70
64
 62
253
  6
CONTINUOUS
  0
LAYER
  2
29
 70
64
 62
253
  6
CONTINUOUS
  0
LAYER
  2
30
 70
64
 62
253
  6
CONTINUOUS
  0
LAYER
  2
31
 70
64
 62
253
  6
CONTINUOUS
  0
LAYER
  2
32
 70
64
 62
253
  6
CONTINUOUS
  0
LAYER
  2
33
 70
64
 62
53
  6
CONTINUOUS
  0
LAYER
  2
34
 70
64
 62
53
  6
CONTINUOUS
  0
LAYER
  2
35
 70
64
 62
253
  6
CONTINUOUS
  0
LAYER
  2
36
 70
64
 62
253
  6
CONTINUOUS
  0
LAYER
  2
37
 70
64
 62
253
  6
CONTINUOUS
  0
LAYER
  2
38
 70
64
 62
253
  6
CONTINUOUS
  0
LAYER
  2
39
 70
64
 62
22
  6
CONTINUOUS
  0
LAYER
  2
40
 70
64
 62
175
  6
CONTINUOUS
  0
LAYER
  2
41
 70
64
 62
22
  6
CONTINUOUS
  0
LAYER
  2
42
 70
64
 62
175
  6
CONTINUOUS
  0
LAYER
  2
43
 70
64
 62
82
  6
CONTINUOUS
  0
LAYER
  2
44
 70
64
 62
253
  6
CONTINUOUS
  0
LAYER
  2
45
 70
64
 62
253
  6
CONTINUOUS
  0
LAYER
  2
46
 70
64
 62
140
  6
CONTINUOUS
  0
LAYER
  2
47
 70
64
 62
253
  6
CONTINUOUS
  0
LAYER
  2
48
 70
64
 62
253
  6
CONTINUOUS
  0
LAYER
  2
49
 70
64
 62
253
  6
CONTINUOUS
  0
LAYER
  2
51
 70
64
 62
253
  6
CONTINUOUS
  0
LAYER
  2
52
 70
64
 62
253
  6
CONTINUOUS
  0
LAYER
  2
90
 70
64
 62
213
  6
CONTINUOUS
  0
LAYER
  2
100
 70
64
 62
253
  6
CONTINUOUS
  0
LAYER
  2
101
 70
64
 62
253
  6
CONTINUOUS
  0
LAYER
  2
102
 70
64
 62
253
  6
CONTINUOUS
  0
LAYER
  2
103
 70
64
 62
253
  6
CONTINUOUS
  0
LAYER
  2
104
 70
64
 62
253
  6
CONTINUOUS
  0
LAYER
  2
105
 70
64
 62
253
  6
CONTINUOUS
  0
LAYER
  2
106
 70
64
 62
253
  6
CONTINUOUS
  0
LAYER
  2
107
 70
64
 62
253
  6
CONTINUOUS
  0
LAYER
  2
108
 70
64
 62
253
  6
CONTINUOUS
  0
LAYER
  2
109
 70
64
 62
253
  6
CONTINUOUS
  0
LAYER
  2
110
 70
64
 62
253
  6
CONTINUOUS
  0
LAYER
  2
111
 70
64
 62
253
  6
CONTINUOUS
  0
LAYER
  2
112
 70
64
 62
253
  6
CONTINUOUS
  0
LAYER
  2
113
 70
64
 62
22
  6
CONTINUOUS
  0
LAYER
  2
114
 70
64
 62
253
  6
CONTINUOUS
  0
LAYER
  2
115
 70
64
 62
253
  6
CONTINUOUS
  0
LAYER
  2
116
 70
64
 62
253
  6
CONTINUOUS
  0
LAYER
  2
121
 70
64
 62
253
  6
CONTINUOUS
  0
LAYER
  2
122
 70
64
 62
253
  6
CONTINUOUS
  0
LAYER
  2
123
 70
64
 62
253
  6
CONTINUOUS
  0
LAYER
  2
124
 70
64
 62
253
  6
CONTINUOUS
  0
LAYER
  2
125
 70
64
 62
253
  6
CONTINUOUS
  0
LAYER
  2
126
 70
64
 62
253
  6
CONTINUOUS
  0
LAYER
  2
127
 70
64
 62
253
  6
CONTINUOUS
  0
LAYER
  2
128
 70
64
 62
253
  6
CONTINUOUS
  0
LAYER
  2
129
 70
64
 62
253
  6
CONTINUOUS
  0
LAYER
  2
131
 70
64
 62
253
  6
CONTINUOUS
  0
LAYER
  2
132
 70
64
 62
253
  6
CONTINUOUS
  0
LAYER
  2
136
 70
64
 62
253
  6
CONTINUOUS
  0
LAYER
  2
137
 70
64
 62
253
  6
CONTINUOUS
  0
LAYER
  2
144
 70
64
 62
253
  6
CONTINUOUS
  0
LAYER
  2
145
 70
64
 62
253
  6
CONTINUOUS
  0
LAYER
  2
146
 70
64
 62
253
  6
CONTINUOUS
  0
LAYER
  2
147
 70
64
 62
253
  6
CONTINUOUS
  0
LAYER
  2
148
 70
64
 62
253
  6
CONTINUOUS
  0
LAYER
  2
149
 70
64
 62
253
  6
CONTINUOUS
  0
LAYER
  2
150
 70
64
 62
253
  6
CONTINUOUS
  0
LAYER
  2
151
 70
64
 62
253
  6
CONTINUOUS
  0
LAYER
  2
152
 70
64
 62
253
  6
CONTINUOUS
  0
LAYER
  2
153
 70
64
 62
253
  6
CONTINUOUS
  0
LAYER
  2
154
 70
64
 62
253
  6
CONTINUOUS
  0
LAYER
  2
155
 70
64
 62
253
  6
CONTINUOUS
  0
LAYER
  2
190
 70
64
 62
3
  6
CONTINUOUS
  0
LAYER
  2
191
 70
64
 62
2
  6
CONTINUOUS
  0
LAYER
  2
199
 70
64
 62
253
  6
CONTINUOUS
  0
LAYER
  2
200
 70
64
 62
3
  6
CONTINUOUS
  0
LAYER
  2
201
 70
64
 62
7
  6
CONTINUOUS
  0
LAYER
  2
202
 70
64
 62
253
  6
CONTINUOUS
  0
LAYER
  2
203
 70
64
 62
22
  6
CONTINUOUS
  0
LAYER
  2
204
 70
64
 62
213
  6
CONTINUOUS
  0
LAYER
  2
205
 70
64
 62
53
  6
CONTINUOUS
  0
LAYER
  2
206
 70
64
 62
253
  6
CONTINUOUS
  0
LAYER
  2
207
 70
64
 62
250
  6
CONTINUOUS
  0
LAYER
  2
208
 70
64
 62
5
  6
CONTINUOUS
  0
LAYER
  2
225
 70
64
 62
253
  6
CONTINUOUS
  0
LAYER
  2
226
 70
64
 62
253
  6
CONTINUOUS
  0
LAYER
  2
227
 70
64
 62
253
  6
CONTINUOUS
  0
LAYER
  2
228
 70
64
 62
253
  6
CONTINUOUS
  0
LAYER
  2
229
 70
64
 62
253
  6
CONTINUOUS
  0
LAYER
  2
230
 70
64
 62
253
  6
CONTINUOUS
  0
LAYER
  2
248
 70
64
 62
253
  6
CONTINUOUS
  0
LAYER
  2
249
 70
64
 62
253
  6
CONTINUOUS
  0
LAYER
  2
250
 70
64
 62
253
  6
CONTINUOUS
  0
LAYER
  2
251
 70
64
 62
253
  6
CONTINUOUS
  0
LAYER
  2
254
 70
64
 62
253
  6
CONTINUOUS
  0
LAYER
  2
255
 70
64
 62
253
  6
CONTINUOUS
  0
ENDTAB
  0
ENDSEC
  0
SECTION
  2
BLOCKS
  0
BLOCK
  8
0
  2
RECT
 70
64
 10
0.0000
 20
0.0000
 30
0.0000
  3
RECT
  0
SOLID
  8
0
 10
-0.5000
 20
-0.5000
 30
0.0000
 11
0.5000
 21
-0.5000
 31
0.0000
 12
-0.5000
 22
0.5000
 32
0.0000
 13
0.5000
 23
0.5000
 33
0.0000
  0
ENDBLK
  8
0
  0
BLOCK
  8
0
  2
PIE
 70
64
 10
0.0000
 20
0.0000
 30
0.0000
  3
PIE
  0
POLYLINE
  8
0
 66
1
 10
0.0000
 20
0.0000
 30
0.0000
 40
0.5000
 41
0.5000
 70
0
  0
VERTEX
  8
0
 10
0.0000
 20
-0.2500
 30
0.0000
 42
1.0000
  0
VERTEX
  8
0
 10
0.0000
 20
0.2500
 30
0.0000
 42
1.0000
  0
VERTEX
  8
0
 10
0.0000
 20
-0.2500
 30
0.0000
  0
SEQEND
  8
0
  0
ENDBLK
  8
0
  0
BLOCK
  8
0
  2
OCTAGONP
 70
64
 10
0.0000
 20
0.0000
 30
0.0000
  3
OCTAGONP
  0
POLYLINE
  8
0
 66
1
 10
0.0000
 20
0.0000
 30
0.0000
 40
0.5000
 41
0.5000
 70
0
  0
VERTEX
  8
0
 10
-0.2500
 20
-0.1036
 30
0.0000
  0
VERTEX
  8
0
 10
-0.2500
 20
0.1036
 30
0.0000
  0
VERTEX
  8
0
 10
-0.1036
 20
0.2500
 30
0.0000
  0
VERTEX
  8
0
 10
0.1036
 20
0.2500
 30
0.0000
  0
VERTEX
  8
0
 10
0.2500
 20
0.1036
 30
0.0000
  0
VERTEX
  8
0
 10
0.2500
 20
-0.1036
 30
0.0000
  0
VERTEX
  8
0
 10
0.1036
 20
-0.2500
 30
0.0000
  0
VERTEX
  8
0
 10
-0.1036
 20
-0.2500
 30
0.0000
  0
VERTEX
  8
0
 10
-0.2500
 20
-0.1036
 30
0.0000
  0
VERTEX
  8
0
 10
-0.2500
 20
0.1036
 30
0.0000
  0
SEQEND
  8
0
  0
ENDBLK
  8
0
  0
BLOCK
  8
0
  2
SQUAREP
 70
64
 10
0.0000
 20
0.0000
 30
0.0000
  3
SQUAREP
  0
SOLID
  8
0
 10
-0.5000
 20
-0.5000
 30
0.0000
 11
0.5000
 21
-0.5000
 31
0.0000
 12
-0.5000
 22
0.5000
 32
0.0000
 13
0.5000
 23
0.5000
 33
0.0000
  0
ENDBLK
  8
0
  0
BLOCK
  8
0
  2
ROUNDP
 70
64
 10
0.0000
 20
0.0000
 30
0.0000
  3
ROUNDP
  0
POLYLINE
  8
0
 66
1
 10
0.0000
 20
0.0000
 30
0.0000
 40
0.5000
 41
0.5000
 70
0
  0
VERTEX
  8
0
 10
0.0000
 20
-0.2500
 30
0.0000
 42
1.0000
  0
VERTEX
  8
0
 10
0.0000
 20
0.2500
 30
0.0000
 42
1.0000
  0
VERTEX
  8
0
 10
0.0000
 20
-0.2500
 30
0.0000
  0
SEQEND
  8
0
  0
ENDBLK
  8
0
  0
BLOCK
  8
0
  2
ANNULUSP
 70
64
 10
0.0000
 20
0.0000
 30
0.0000
  3
ANNULUSP
  0
POLYLINE
  8
0
 66
1
 10
0.0000
 20
0.0000
 30
0.0000
 40
0.5000
 41
0.5000
 70
0
  0
VERTEX
  8
0
 10
0.0000
 20
-0.2500
 30
0.0000
 42
1.0000
  0
VERTEX
  8
0
 10
0.0000
 20
0.2500
 30
0.0000
 42
1.0000
  0
VERTEX
  8
0
 10
0.0000
 20
-0.2500
 30
0.0000
  0
SEQEND
  8
0
  0
ENDBLK
  8
0
  0
BLOCK
  8
0
  2
THERMALP
 70
64
 10
0.0000
 20
0.0000
 30
0.0000
  3
THERMALP
  0
POLYLINE
  8
0
 66
1
 10
0.0000
 20
0.0000
 30
0.0000
 40
0.1000
 41
0.1000
 70
0
  0
VERTEX
  8
0
 10
-0.2379
 20
0.4500
 30
0.0000
  0
VERTEX
  8
0
 10
0.2379
 20
0.4500
 30
0.0000
  0
SEQEND
  8
0
  0
POLYLINE
  8
0
 66
1
 10
0.0000
 20
0.0000
 30
0.0000
 40
0.0500
 41
0.0500
 70
0
  0
VERTEX
  8
0
 10
0.2379
 20
0.4250
 30
0.0000
 42
1.0000
  0
VERTEX
  8
0
 10
0.2379
 20
0.4750
 30
0.0000
  0
SEQEND
  8
0
  0
POLYLINE
  8
0
 66
1
 10
0.0000
 20
0.0000
 30
0.0000
 40
0.0500
 41
0.0500
 70
0
  0
VERTEX
  8
0
 10
-0.2379
 20
0.4750
 30
0.0000
 42
1.0000
  0
VERTEX
  8
0
 10
-0.2379
 20
0.4250
 30
0.0000
  0
SEQEND
  8
0
  0
POLYLINE
  8
0
 66
1
 10
0.0000
 20
0.0000
 30
0.0000
 40
0.1000
 41
0.1000
 70
0
  0
VERTEX
  8
0
 10
0.4500
 20
0.2379
 30
0.0000
  0
VERTEX
  8
0
 10
0.4500
 20
-0.2379
 30
0.0000
  0
SEQEND
  8
0
  0
POLYLINE
  8
0
 66
1
 10
0.0000
 20
0.0000
 30
0.0000
 40
0.0500
 41
0.0500
 70
0
  0
VERTEX
  8
0
 10
0.4250
 20
-0.2379
 30
0.0000
 42
1.0000
  0
VERTEX
  8
0
 10
0.4750
 20
-0.2379
 30
0.0000
  0
SEQEND
  8
0
  0
POLYLINE
  8
0
 66
1
 10
0.0000
 20
0.0000
 30
0.0000
 40
0.0500
 41
0.0500
 70
0
  0
VERTEX
  8
0
 10
0.4750
 20
0.2379
 30
0.0000
 42
1.0000
  0
VERTEX
  8
0
 10
0.4250
 20
0.2379
 30
0.0000
  0
SEQEND
  8
0
  0
POLYLINE
  8
0
 66
1
 10
0.0000
 20
0.0000
 30
0.0000
 40
0.1000
 41
0.1000
 70
0
  0
VERTEX
  8
0
 10
0.2379
 20
-0.4500
 30
0.0000
  0
VERTEX
  8
0
 10
-0.2379
 20
-0.4500
 30
0.0000
  0
SEQEND
  8
0
  0
POLYLINE
  8
0
 66
1
 10
0.0000
 20
0.0000
 30
0.0000
 40
0.0500
 41
0.0500
 70
0
  0
VERTEX
  8
0
 10
-0.2379
 20
-0.4250
 30
0.0000
 42
1.0000
  0
VERTEX
  8
0
 10
-0.2379
 20
-0.4750
 30
0.0000
  0
SEQEND
  8
0
  0
POLYLINE
  8
0
 66
1
 10
0.0000
 20
0.0000
 30
0.0000
 40
0.0500
 41
0.0500
 70
0
  0
VERTEX
  8
0
 10
0.2379
 20
-0.4750
 30
0.0000
 42
1.0000
  0
VERTEX
  8
0
 10
0.2379
 20
-0.4250
 30
0.0000
  0
SEQEND
  8
0
  0
POLYLINE
  8
0
 66
1
 10
0.0000
 20
0.0000
 30
0.0000
 40
0.1000
 41
0.1000
 70
0
  0
VERTEX
  8
0
 10
-0.4500
 20
-0.2379
 30
0.0000
  0
VERTEX
  8
0
 10
-0.4500
 20
0.2379
 30
0.0000
  0
SEQEND
  8
0
  0
POLYLINE
  8
0
 66
1
 10
0.0000
 20
0.0000
 30
0.0000
 40
0.0500
 41
0.0500
 70
0
  0
VERTEX
  8
0
 10
-0.4250
 20
0.2379
 30
0.0000
 42
1.0000
  0
VERTEX
  8
0
 10
-0.4750
 20
0.2379
 30
0.0000
  0
SEQEND
  8
0
  0
POLYLINE
  8
0
 66
1
 10
0.0000
 20
0.0000
 30
0.0000
 40
0.0500
 41
0.0500
 70
0
  0
VERTEX
  8
0
 10
-0.4750
 20
-0.2379
 30
0.0000
 42
1.0000
  0
VERTEX
  8
0
 10
-0.4250
 20
-0.2379
 30
0.0000
  0
SEQEND
  8
0
  0
ENDBLK
  8
0
  0
BLOCK
  8
0
  2
OCTAGONV
 70
64
 10
0.0000
 20
0.0000
 30
0.0000
  3
OCTAGONV
  0
POLYLINE
  8
0
 66
1
 10
0.0000
 20
0.0000
 30
0.0000
 40
0.5000
 41
0.5000
 70
0
  0
VERTEX
  8
0
 10
-0.2500
 20
-0.1036
 30
0.0000
  0
VERTEX
  8
0
 10
-0.2500
 20
0.1036
 30
0.0000
  0
VERTEX
  8
0
 10
-0.1036
 20
0.2500
 30
0.0000
  0
VERTEX
  8
0
 10
0.1036
 20
0.2500
 30
0.0000
  0
VERTEX
  8
0
 10
0.2500
 20
0.1036
 30
0.0000
  0
VERTEX
  8
0
 10
0.2500
 20
-0.1036
 30
0.0000
  0
VERTEX
  8
0
 10
0.1036
 20
-0.2500
 30
0.0000
  0
VERTEX
  8
0
 10
-0.1036
 20
-0.2500
 30
0.0000
  0
VERTEX
  8
0
 10
-0.2500
 20
-0.1036
 30
0.0000
  0
VERTEX
  8
0
 10
-0.2500
 20
0.1036
 30
0.0000
  0
SEQEND
  8
0
  0
ENDBLK
  8
0
  0
BLOCK
  8
0
  2
SQUAREV
 70
64
 10
0.0000
 20
0.0000
 30
0.0000
  3
SQUAREV
  0
SOLID
  8
0
 10
-0.5000
 20
-0.5000
 30
0.0000
 11
0.5000
 21
-0.5000
 31
0.0000
 12
-0.5000
 22
0.5000
 32
0.0000
 13
0.5000
 23
0.5000
 33
0.0000
  0
ENDBLK
  8
0
  0
BLOCK
  8
0
  2
ROUNDV
 70
64
 10
0.0000
 20
0.0000
 30
0.0000
  3
ROUNDV
  0
POLYLINE
  8
0
 66
1
 10
0.0000
 20
0.0000
 30
0.0000
 40
0.5000
 41
0.5000
 70
0
  0
VERTEX
  8
0
 10
0.0000
 20
-0.2500
 30
0.0000
 42
1.0000
  0
VERTEX
  8
0
 10
0.0000
 20
0.2500
 30
0.0000
 42
1.0000
  0
VERTEX
  8
0
 10
0.0000
 20
-0.2500
 30
0.0000
  0
SEQEND
  8
0
  0
ENDBLK
  8
0
  0
BLOCK
  8
0
  2
ANNULUSV
 70
64
 10
0.0000
 20
0.0000
 30
0.0000
  3
ANNULUSV
  0
POLYLINE
  8
0
 66
1
 10
0.0000
 20
0.0000
 30
0.0000
 40
0.5000
 41
0.5000
 70
0
  0
VERTEX
  8
0
 10
0.0000
 20
-0.2500
 30
0.0000
 42
1.0000
  0
VERTEX
  8
0
 10
0.0000
 20
0.2500
 30
0.0000
 42
1.0000
  0
VERTEX
  8
0
 10
0.0000
 20
-0.2500
 30
0.0000
  0
SEQEND
  8
0
  0
ENDBLK
  8
0
  0
BLOCK
  8
0
  2
THERMALV
 70
64
 10
0.0000
 20
0.0000
 30
0.0000
  3
THERMALV
  0
POLYLINE
  8
0
 66
1
 10
0.0000
 20
0.0000
 30
0.0000
 40
0.1000
 41
0.1000
 70
0
  0
VERTEX
  8
0
 10
-0.2379
 20
0.4500
 30
0.0000
  0
VERTEX
  8
0
 10
0.2379
 20
0.4500
 30
0.0000
  0
SEQEND
  8
0
  0
POLYLINE
  8
0
 66
1
 10
0.0000
 20
0.0000
 30
0.0000
 40
0.0500
 41
0.0500
 70
0
  0
VERTEX
  8
0
 10
0.2379
 20
0.4250
 30
0.0000
 42
1.0000
  0
VERTEX
  8
0
 10
0.2379
 20
0.4750
 30
0.0000
  0
SEQEND
  8
0
  0
POLYLINE
  8
0
 66
1
 10
0.0000
 20
0.0000
 30
0.0000
 40
0.0500
 41
0.0500
 70
0
  0
VERTEX
  8
0
 10
-0.2379
 20
0.4750
 30
0.0000
 42
1.0000
  0
VERTEX
  8
0
 10
-0.2379
 20
0.4250
 30
0.0000
  0
SEQEND
  8
0
  0
POLYLINE
  8
0
 66
1
 10
0.0000
 20
0.0000
 30
0.0000
 40
0.1000
 41
0.1000
 70
0
  0
VERTEX
  8
0
 10
0.4500
 20
0.2379
 30
0.0000
  0
VERTEX
  8
0
 10
0.4500
 20
-0.2379
 30
0.0000
  0
SEQEND
  8
0
  0
POLYLINE
  8
0
 66
1
 10
0.0000
 20
0.0000
 30
0.0000
 40
0.0500
 41
0.0500
 70
0
  0
VERTEX
  8
0
 10
0.4250
 20
-0.2379
 30
0.0000
 42
1.0000
  0
VERTEX
  8
0
 10
0.4750
 20
-0.2379
 30
0.0000
  0
SEQEND
  8
0
  0
POLYLINE
  8
0
 66
1
 10
0.0000
 20
0.0000
 30
0.0000
 40
0.0500
 41
0.0500
 70
0
  0
VERTEX
  8
0
 10
0.4750
 20
0.2379
 30
0.0000
 42
1.0000
  0
VERTEX
  8
0
 10
0.4250
 20
0.2379
 30
0.0000
  0
SEQEND
  8
0
  0
POLYLINE
  8
0
 66
1
 10
0.0000
 20
0.0000
 30
0.0000
 40
0.1000
 41
0.1000
 70
0
  0
VERTEX
  8
0
 10
0.2379
 20
-0.4500
 30
0.0000
  0
VERTEX
  8
0
 10
-0.2379
 20
-0.4500
 30
0.0000
  0
SEQEND
  8
0
  0
POLYLINE
  8
0
 66
1
 10
0.0000
 20
0.0000
 30
0.0000
 40
0.0500
 41
0.0500
 70
0
  0
VERTEX
  8
0
 10
-0.2379
 20
-0.4250
 30
0.0000
 42
1.0000
  0
VERTEX
  8
0
 10
-0.2379
 20
-0.4750
 30
0.0000
  0
SEQEND
  8
0
  0
POLYLINE
  8
0
 66
1
 10
0.0000
 20
0.0000
 30
0.0000
 40
0.0500
 41
0.0500
 70
0
  0
VERTEX
  8
0
 10
0.2379
 20
-0.4750
 30
0.0000
 42
1.0000
  0
VERTEX
  8
0
 10
0.2379
 20
-0.4250
 30
0.0000
  0
SEQEND
  8
0
  0
POLYLINE
  8
0
 66
1
 10
0.0000
 20
0.0000
 30
0.0000
 40
0.1000
 41
0.1000
 70
0
  0
VERTEX
  8
0
 10
-0.4500
 20
-0.2379
 30
0.0000
  0
VERTEX
  8
0
 10
-0.4500
 20
0.2379
 30
0.0000
  0
SEQEND
  8
0
  0
POLYLINE
  8
0
 66
1
 10
0.0000
 20
0.0000
 30
0.0000
 40
0.0500
 41
0.0500
 70
0
  0
VERTEX
  8
0
 10
-0.4250
 20
0.2379
 30
0.0000
 42
1.0000
  0
VERTEX
  8
0
 10
-0.4750
 20
0.2379
 30
0.0000
  0
SEQEND
  8
0
  0
POLYLINE
  8
0
 66
1
 10
0.0000
 20
0.0000
 30
0.0000
 40
0.0500
 41
0.0500
 70
0
  0
VERTEX
  8
0
 10
-0.4750
 20
-0.2379
 30
0.0000
 42
1.0000
  0
VERTEX
  8
0
 10
-0.4250
 20
-0.2379
 30
0.0000
  0
SEQEND
  8
0
  0
ENDBLK
  8
0
  0
ENDSEC
  0
SECTION
  2
ENTITIES
  0
LINE
  8
51
 10
0.0000
 20
80.7720
 30
0.0000
 11
0.0000
 21
0.0000
 31
0.0000
  0
LINE
  8
51
 10
128.5240
 20
0.0000
 30
0.0000
 11
128.5240
 21
80.7720
 31
0.0000
  0
LINE
  8
51
 10
128.5240
 20
80.7720
 30
0.0000
 11
0.0000
 21
80.7720
 31
0.0000
  0
LINE
  8
20
 10
0.0000
 20
0.0000
 30
0.0000
 11
128.5240
 21
0.0000
 31
0.0000
  0
POLYLINE
  8
51
 66
1
 10
0.0000
 20
0.0000
 30
0.0000
 40
0.4064
 41
0.4064
 70
0
  0
VERTEX
  8
51
 10
3.0000
 20
71.3353
 30
0.0000
 42
1.0000
  0
VERTEX
  8
51
 10
3.0000
 20
75.2647
 30
0.0000
 42
1.0000
  0
VERTEX
  8
51
 10
3.0000
 20
71.3353
 30
0.0000
  0
SEQEND
  8
0
  0
POLYLINE
  8
51
 66
1
 10
0.0000
 20
0.0000
 30
0.0000
 40
0.4064
 41
0.4064
 70
0
  0
VERTEX
  8
51
 10
125.5000
 20
71.3765
 30
0.0000
 42
1.0000
  0
VERTEX
  8
51
 10
125.5000
 20
75.2235
 30
0.0000
 42
1.0000
  0
VERTEX
  8
51
 10
125.5000
 20
71.3765
 30
0.0000
  0
SEQEND
  8
0
  0
POLYLINE
  8
51
 66
1
 10
0.0000
 20
0.0000
 30
0.0000
 40
0.4064
 41
0.4064
 70
0
  0
VERTEX
  8
51
 10
3.0000
 20
5.5353
 30
0.0000
 42
1.0000
  0
VERTEX
  8
51
 10
3.0000
 20
9.4647
 30
0.0000
 42
1.0000
  0
VERTEX
  8
51
 10
3.0000
 20
5.5353
 30
0.0000
  0
SEQEND
  8
0
  0
POLYLINE
  8
51
 66
1
 10
0.0000
 20
0.0000
 30
0.0000
 40
0.4064
 41
0.4064
 70
0
  0
VERTEX
  8
51
 10
125.5000
 20
5.5765
 30
0.0000
 42
1.0000
  0
VERTEX
  8
51
 10
125.5000
 20
9.4235
 30
0.0000
 42
1.0000
  0
VERTEX
  8
51
 10
125.5000
 20
5.5765
 30
0.0000
  0
SEQEND
  8
0
  0
CIRCLE
  8
20
 10
19.3040
 20
66.0400
 30
0.0000
 40
3.0000
  0
POLYLINE
  8
29
 66
1
 10
0.0000
 20
0.0000
 30
0.0000
 40
3.1016
 41
3.1016
 70
0
  0
VERTEX
  8
29
 10
19.3040
 20
64.4892
 30
0.0000
 42
1.0000
  0
VERTEX
  8
29
 10
19.3040
 20
67.5908
 30
0.0000
 42
1.0000
  0
VERTEX
  8
29
 10
19.3040
 20
64.4892
 30
0.0000
  0
SEQEND
  8
0
  0
POLYLINE
  8
30
 66
1
 10
0.0000
 20
0.0000
 30
0.0000
 40
3.1016
 41
3.1016
 70
0
  0
VERTEX
  8
30
 10
19.3040
 20
64.4892
 30
0.0000
 42
1.0000
  0
VERTEX
  8
30
 10
19.3040
 20
67.5908
 30
0.0000
 42
1.0000
  0
VERTEX
  8
30
 10
19.3040
 20
64.4892
 30
0.0000
  0
SEQEND
  8
0
  0
CIRCLE
  8
20
 10
19.3040
 20
55.8800
 30
0.0000
 40
3.0000
  0
POLYLINE
  8
29
 66
1
 10
0.0000
 20
0.0000
 30
0.0000
 40
3.1016
 41
3.1016
 70
0
  0
VERTEX
  8
29
 10
19.3040
 20
54.3292
 30
0.0000
 42
1.0000
  0
VERTEX
  8
29
 10
19.3040
 20
57.4308
 30
0.0000
 42
1.0000
  0
VERTEX
  8
29
 10
19.3040
 20
54.3292
 30
0.0000
  0
SEQEND
  8
0
  0
POLYLINE
  8
30
 66
1
 10
0.0000
 20
0.0000
 30
0.0000
 40
3.1016
 41
3.1016
 70
0
  0
VERTEX
  8
30
 10
19.3040
 20
54.3292
 30
0.0000
 42
1.0000
  0
VERTEX
  8
30
 10
19.3040
 20
57.4308
 30
0.0000
 42
1.0000
  0
VERTEX
  8
30
 10
19.3040
 20
54.3292
 30
0.0000
  0
SEQEND
  8
0
  0
CIRCLE
  8
20
 10
19.0500
 20
45.7200
 30
0.0000
 40
3.0000
  0
POLYLINE
  8
29
 66
1
 10
0.0000
 20
0.0000
 30
0.0000
 40
3.1016
 41
3.1016
 70
0
  0
VERTEX
  8
29
 10
19.0500
 20
44.1692
 30
0.0000
 42
1.0000
  0
VERTEX
  8
29
 10
19.0500
 20
47.2708
 30
0.0000
 42
1.0000
  0
VERTEX
  8
29
 10
19.0500
 20
44.1692
 30
0.0000
  0
SEQEND
  8
0
  0
POLYLINE
  8
30
 66
1
 10
0.0000
 20
0.0000
 30
0.0000
 40
3.1016
 41
3.1016
 70
0
  0
VERTEX
  8
30
 10
19.0500
 20
44.1692
 30
0.0000
 42
1.0000
  0
VERTEX
  8
30
 10
19.0500
 20
47.2708
 30
0.0000
 42
1.0000
  0
VERTEX
  8
30
 10
19.0500
 20
44.1692
 30
0.0000
  0
SEQEND
  8
0
  0
CIRCLE
  8
20
 10
33.0200
 20
66.0400
 30
0.0000
 40
3.0000
  0
POLYLINE
  8
29
 66
1
 10
0.0000
 20
0.0000
 30
0.0000
 40
3.1016
 41
3.1016
 70
0
  0
VERTEX
  8
29
 10
33.0200
 20
64.4892
 30
0.0000
 42
1.0000
  0
VERTEX
  8
29
 10
33.0200
 20
67.5908
 30
0.0000
 42
1.0000
  0
VERTEX
  8
29
 10
33.0200
 20
64.4892
 30
0.0000
  0
SEQEND
  8
0
  0
POLYLINE
  8
30
 66
1
 10
0.0000
 20
0.0000
 30
0.0000
 40
3.1016
 41
3.1016
 70
0
  0
VERTEX
  8
30
 10
33.0200
 20
64.4892
 30
0.0000
 42
1.0000
  0
VERTEX
  8
30
 10
33.0200
 20
67.5908
 30
0.0000
 42
1.0000
  0
VERTEX
  8
30
 10
33.0200
 20
64.4892
 30
0.0000
  0
SEQEND
  8
0
  0
CIRCLE
  8
20
 10
33.0200
 20
55.8800
 30
0.0000
 40
3.0000
  0
POLYLINE
  8
29
 66
1
 10
0.0000
 20
0.0000
 30
0.0000
 40
3.1016
 41
3.1016
 70
0
  0
VERTEX
  8
29
 10
33.0200
 20
54.3292
 30
0.0000
 42
1.0000
  0
VERTEX
  8
29
 10
33.0200
 20
57.4308
 30
0.0000
 42
1.0000
  0
VERTEX
  8
29
 10
33.0200
 20
54.3292
 30
0.0000
  0
SEQEND
  8
0
  0
POLYLINE
  8
30
 66
1
 10
0.0000
 20
0.0000
 30
0.0000
 40
3.1016
 41
3.1016
 70
0
  0
VERTEX
  8
30
 10
33.0200
 20
54.3292
 30
0.0000
 42
1.0000
  0
VERTEX
  8
30
 10
33.0200
 20
57.4308
 30
0.0000
 42
1.0000
  0
VERTEX
  8
30
 10
33.0200
 20
54.3292
 30
0.0000
  0
SEQEND
  8
0
  0
CIRCLE
  8
20
 10
33.0200
 20
45.7200
 30
0.0000
 40
3.0000
  0
POLYLINE
  8
29
 66
1
 10
0.0000
 20
0.0000
 30
0.0000
 40
3.1016
 41
3.1016
 70
0
  0
VERTEX
  8
29
 10
33.0200
 20
44.1692
 30
0.0000
 42
1.0000
  0
VERTEX
  8
29
 10
33.0200
 20
47.2708
 30
0.0000
 42
1.0000
  0
VERTEX
  8
29
 10
33.0200
 20
44.1692
 30
0.0000
  0
SEQEND
  8
0
  0
POLYLINE
  8
30
 66
1
 10
0.0000
 20
0.0000
 30
0.0000
 40
3.1016
 41
3.1016
 70
0
  0
VERTEX
  8
30
 10
33.0200
 20
44.1692
 30
0.0000
 42
1.0000
  0
VERTEX
  8
30
 10
33.0200
 20
47.2708
 30
0.0000
 42
1.0000
  0
VERTEX
  8
30
 10
33.0200
 20
44.1692
 30
0.0000
  0
SEQEND
  8
0
  0
CIRCLE
  8
20
 10
46.9900
 20
66.0400
 30
0.0000
 40
3.0000
  0
POLYLINE
  8
29
 66
1
 10
0.0000
 20
0.0000
 30
0.0000
 40
3.1016
 41
3.1016
 70
0
  0
VERTEX
  8
29
 10
46.9900
 20
64.4892
 30
0.0000
 42
1.0000
  0
VERTEX
  8
29
 10
46.9900
 20
67.5908
 30
0.0000
 42
1.0000
  0
VERTEX
  8
29
 10
46.9900
 20
64.4892
 30
0.0000
  0
SEQEND
  8
0
  0
POLYLINE
  8
30
 66
1
 10
0.0000
 20
0.0000
 30
0.0000
 40
3.1016
 41
3.1016
 70
0
  0
VERTEX
  8
30
 10
46.9900
 20
64.4892
 30
0.0000
 42
1.0000
  0
VERTEX
  8
30
 10
46.9900
 20
67.5908
 30
0.0000
 42
1.0000
  0
VERTEX
  8
30
 10
46.9900
 20
64.4892
 30
0.0000
  0
SEQEND
  8
0
  0
CIRCLE
  8
20
 10
46.9900
 20
55.8800
 30
0.0000
 40
3.0000
  0
POLYLINE
  8
29
 66
1
 10
0.0000
 20
0.0000
 30
0.0000
 40
3.1016
 41
3.1016
 70
0
  0
VERTEX
  8
29
 10
46.9900
 20
54.3292
 30
0.0000
 42
1.0000
  0
VERTEX
  8
29
 10
46.9900
 20
57.4308
 30
0.0000
 42
1.0000
  0
VERTEX
  8
29
 10
46.9900
 20
54.3292
 30
0.0000
  0
SEQEND
  8
0
  0
POLYLINE
  8
30
 66
1
 10
0.0000
 20
0.0000
 30
0.0000
 40
3.1016
 41
3.1016
 70
0
  0
VERTEX
  8
30
 10
46.9900
 20
54.3292
 30
0.0000
 42
1.0000
  0
VERTEX
  8
30
 10
46.9900
 20
57.4308
 30
0.0000
 42
1.0000
  0
VERTEX
  8
30
 10
46.9900
 20
54.3292
 30
0.0000
  0
SEQEND
  8
0
  0
CIRCLE
  8
20
 10
46.9900
 20
45.7200
 30
0.0000
 40
3.0000
  0
POLYLINE
  8
29
 66
1
 10
0.0000
 20
0.0000
 30
0.0000
 40
3.1016
 41
3.1016
 70
0
  0
VERTEX
  8
29
 10
46.9900
 20
44.1692
 30
0.0000
 42
1.0000
  0
VERTEX
  8
29
 10
46.9900
 20
47.2708
 30
0.0000
 42
1.0000
  0
VERTEX
  8
29
 10
46.9900
 20
44.1692
 30
0.0000
  0
SEQEND
  8
0
  0
POLYLINE
  8
30
 66
1
 10
0.0000
 20
0.0000
 30
0.0000
 40
3.1016
 41
3.1016
 70
0
  0
VERTEX
  8
30
 10
46.9900
 20
44.1692
 30
0.0000
 42
1.0000
  0
VERTEX
  8
30
 10
46.9900
 20
47.2708
 30
0.0000
 42
1.0000
  0
VERTEX
  8
30
 10
46.9900
 20
44.1692
 30
0.0000
  0
SEQEND
  8
0
  0
CIRCLE
  8
20
 10
46.9900
 20
35.5600
 30
0.0000
 40
3.0000
  0
POLYLINE
  8
29
 66
1
 10
0.0000
 20
0.0000
 30
0.0000
 40
3.1016
 41
3.1016
 70
0
  0
VERTEX
  8
29
 10
46.9900
 20
34.0092
 30
0.0000
 42
1.0000
  0
VERTEX
  8
29
 10
46.9900
 20
37.1108
 30
0.0000
 42
1.0000
  0
VERTEX
  8
29
 10
46.9900
 20
34.0092
 30
0.0000
  0
SEQEND
  8
0
  0
POLYLINE
  8
30
 66
1
 10
0.0000
 20
0.0000
 30
0.0000
 40
3.1016
 41
3.1016
 70
0
  0
VERTEX
  8
30
 10
46.9900
 20
34.0092
 30
0.0000
 42
1.0000
  0
VERTEX
  8
30
 10
46.9900
 20
37.1108
 30
0.0000
 42
1.0000
  0
VERTEX
  8
30
 10
46.9900
 20
34.0092
 30
0.0000
  0
SEQEND
  8
0
  0
CIRCLE
  8
20
 10
33.0200
 20
35.5600
 30
0.0000
 40
3.0000
  0
POLYLINE
  8
29
 66
1
 10
0.0000
 20
0.0000
 30
0.0000
 40
3.1016
 41
3.1016
 70
0
  0
VERTEX
  8
29
 10
33.0200
 20
34.0092
 30
0.0000
 42
1.0000
  0
VERTEX
  8
29
 10
33.0200
 20
37.1108
 30
0.0000
 42
1.0000
  0
VERTEX
  8
29
 10
33.0200
 20
34.0092
 30
0.0000
  0
SEQEND
  8
0
  0
POLYLINE
  8
30
 66
1
 10
0.0000
 20
0.0000
 30
0.0000
 40
3.1016
 41
3.1016
 70
0
  0
VERTEX
  8
30
 10
33.0200
 20
34.0092
 30
0.0000
 42
1.0000
  0
VERTEX
  8
30
 10
33.0200
 20
37.1108
 30
0.0000
 42
1.0000
  0
VERTEX
  8
30
 10
33.0200
 20
34.0092
 30
0.0000
  0
SEQEND
  8
0
  0
CIRCLE
  8
20
 10
19.0500
 20
35.5600
 30
0.0000
 40
3.0000
  0
POLYLINE
  8
29
 66
1
 10
0.0000
 20
0.0000
 30
0.0000
 40
3.1016
 41
3.1016
 70
0
  0
VERTEX
  8
29
 10
19.0500
 20
34.0092
 30
0.0000
 42
1.0000
  0
VERTEX
  8
29
 10
19.0500
 20
37.1108
 30
0.0000
 42
1.0000
  0
VERTEX
  8
29
 10
19.0500
 20
34.0092
 30
0.0000
  0
SEQEND
  8
0
  0
POLYLINE
  8
30
 66
1
 10
0.0000
 20
0.0000
 30
0.0000
 40
3.1016
 41
3.1016
 70
0
  0
VERTEX
  8
30
 10
19.0500
 20
34.0092
 30
0.0000
 42
1.0000
  0
VERTEX
  8
30
 10
19.0500
 20
37.1108
 30
0.0000
 42
1.0000
  0
VERTEX
  8
30
 10
19.0500
 20
34.0092
 30
0.0000
  0
SEQEND
  8
0
  0
CIRCLE
  8
20
 10
19.0500
 20
25.4000
 30
0.0000
 40
3.0000
  0
POLYLINE
  8
29
 66
1
 10
0.0000
 20
0.0000
 30
0.0000
 40
3.1016
 41
3.1016
 70
0
  0
VERTEX
  8
29
 10
19.0500
 20
23.8492
 30
0.0000
 42
1.0000
  0
VERTEX
  8
29
 10
19.0500
 20
26.9508
 30
0.0000
 42
1.0000
  0
VERTEX
  8
29
 10
19.0500
 20
23.8492
 30
0.0000
  0
SEQEND
  8
0
  0
POLYLINE
  8
30
 66
1
 10
0.0000
 20
0.0000
 30
0.0000
 40
3.1016
 41
3.1016
 70
0
  0
VERTEX
  8
30
 10
19.0500
 20
23.8492
 30
0.0000
 42
1.0000
  0
VERTEX
  8
30
 10
19.0500
 20
26.9508
 30
0.0000
 42
1.0000
  0
VERTEX
  8
30
 10
19.0500
 20
23.8492
 30
0.0000
  0
SEQEND
  8
0
  0
CIRCLE
  8
20
 10
33.0200
 20
25.4000
 30
0.0000
 40
3.0000
  0
POLYLINE
  8
29
 66
1
 10
0.0000
 20
0.0000
 30
0.0000
 40
3.1016
 41
3.1016
 70
0
  0
VERTEX
  8
29
 10
33.0200
 20
23.8492
 30
0.0000
 42
1.0000
  0
VERTEX
  8
29
 10
33.0200
 20
26.9508
 30
0.0000
 42
1.0000
  0
VERTEX
  8
29
 10
33.0200
 20
23.8492
 30
0.0000
  0
SEQEND
  8
0
  0
POLYLINE
  8
30
 66
1
 10
0.0000
 20
0.0000
 30
0.0000
 40
3.1016
 41
3.1016
 70
0
  0
VERTEX
  8
30
 10
33.0200
 20
23.8492
 30
0.0000
 42
1.0000
  0
VERTEX
  8
30
 10
33.0200
 20
26.9508
 30
0.0000
 42
1.0000
  0
VERTEX
  8
30
 10
33.0200
 20
23.8492
 30
0.0000
  0
SEQEND
  8
0
  0
CIRCLE
  8
20
 10
46.9900
 20
25.4000
 30
0.0000
 40
3.0000
  0
POLYLINE
  8
29
 66
1
 10
0.0000
 20
0.0000
 30
0.0000
 40
3.1016
 41
3.1016
 70
0
  0
VERTEX
  8
29
 10
46.9900
 20
23.8492
 30
0.0000
 42
1.0000
  0
VERTEX
  8
29
 10
46.9900
 20
26.9508
 30
0.0000
 42
1.0000
  0
VERTEX
  8
29
 10
46.9900
 20
23.8492
 30
0.0000
  0
SEQEND
  8
0
  0
POLYLINE
  8
30
 66
1
 10
0.0000
 20
0.0000
 30
0.0000
 40
3.1016
 41
3.1016
 70
0
  0
VERTEX
  8
30
 10
46.9900
 20
23.8492
 30
0.0000
 42
1.0000
  0
VERTEX
  8
30
 10
46.9900
 20
26.9508
 30
0.0000
 42
1.0000
  0
VERTEX
  8
30
 10
46.9900
 20
23.8492
 30
0.0000
  0
SEQEND
  8
0
  0
CIRCLE
  8
20
 10
19.0500
 20
15.2400
 30
0.0000
 40
3.0000
  0
POLYLINE
  8
29
 66
1
 10
0.0000
 20
0.0000
 30
0.0000
 40
3.1016
 41
3.1016
 70
0
  0
VERTEX
  8
29
 10
19.0500
 20
13.6892
 30
0.0000
 42
1.0000
  0
VERTEX
  8
29
 10
19.0500
 20
16.7908
 30
0.0000
 42
1.0000
  0
VERTEX
  8
29
 10
19.0500
 20
13.6892
 30
0.0000
  0
SEQEND
  8
0
  0
POLYLINE
  8
30
 66
1
 10
0.0000
 20
0.0000
 30
0.0000
 40
3.1016
 41
3.1016
 70
0
  0
VERTEX
  8
30
 10
19.0500
 20
13.6892
 30
0.0000
 42
1.0000
  0
VERTEX
  8
30
 10
19.0500
 20
16.7908
 30
0.0000
 42
1.0000
  0
VERTEX
  8
30
 10
19.0500
 20
13.6892
 30
0.0000
  0
SEQEND
  8
0
  0
CIRCLE
  8
20
 10
33.0200
 20
15.2400
 30
0.0000
 40
3.0000
  0
POLYLINE
  8
29
 66
1
 10
0.0000
 20
0.0000
 30
0.0000
 40
3.1016
 41
3.1016
 70
0
  0
VERTEX
  8
29
 10
33.0200
 20
13.6892
 30
0.0000
 42
1.0000
  0
VERTEX
  8
29
 10
33.0200
 20
16.7908
 30
0.0000
 42
1.0000
  0
VERTEX
  8
29
 10
33.0200
 20
13.6892
 30
0.0000
  0
SEQEND
  8
0
  0
POLYLINE
  8
30
 66
1
 10
0.0000
 20
0.0000
 30
0.0000
 40
3.1016
 41
3.1016
 70
0
  0
VERTEX
  8
30
 10
33.0200
 20
13.6892
 30
0.0000
 42
1.0000
  0
VERTEX
  8
30
 10
33.0200
 20
16.7908
 30
0.0000
 42
1.0000
  0
VERTEX
  8
30
 10
33.0200
 20
13.6892
 30
0.0000
  0
SEQEND
  8
0
  0
CIRCLE
  8
20
 10
46.9900
 20
15.2400
 30
0.0000
 40
3.0000
  0
POLYLINE
  8
29
 66
1
 10
0.0000
 20
0.0000
 30
0.0000
 40
3.1016
 41
3.1016
 70
0
  0
VERTEX
  8
29
 10
46.9900
 20
13.6892
 30
0.0000
 42
1.0000
  0
VERTEX
  8
29
 10
46.9900
 20
16.7908
 30
0.0000
 42
1.0000
  0
VERTEX
  8
29
 10
46.9900
 20
13.6892
 30
0.0000
  0
SEQEND
  8
0
  0
POLYLINE
  8
30
 66
1
 10
0.0000
 20
0.0000
 30
0.0000
 40
3.1016
 41
3.1016
 70
0
  0
VERTEX
  8
30
 10
46.9900
 20
13.6892
 30
0.0000
 42
1.0000
  0
VERTEX
  8
30
 10
46.9900
 20
16.7908
 30
0.0000
 42
1.0000
  0
VERTEX
  8
30
 10
46.9900
 20
13.6892
 30
0.0000
  0
SEQEND
  8
0
  0
CIRCLE
  8
20
 10
64.7700
 20
10.1600
 30
0.0000
 40
3.5000
  0
POLYLINE
  8
29
 66
1
 10
0.0000
 20
0.0000
 30
0.0000
 40
3.6016
 41
3.6016
 70
0
  0
VERTEX
  8
29
 10
64.7700
 20
8.3592
 30
0.0000
 42
1.0000
  0
VERTEX
  8
29
 10
64.7700
 20
11.9608
 30
0.0000
 42
1.0000
  0
VERTEX
  8
29
 10
64.7700
 20
8.3592
 30
0.0000
  0
SEQEND
  8
0
  0
POLYLINE
  8
30
 66
1
 10
0.0000
 20
0.0000
 30
0.0000
 40
3.6016
 41
3.6016
 70
0
  0
VERTEX
  8
30
 10
64.7700
 20
8.3592
 30
0.0000
 42
1.0000
  0
VERTEX
  8
30
 10
64.7700
 20
11.9608
 30
0.0000
 42
1.0000
  0
VERTEX
  8
30
 10
64.7700
 20
8.3592
 30
0.0000
  0
SEQEND
  8
0
  0
CIRCLE
  8
20
 10
64.7700
 20
30.4800
 30
0.0000
 40
3.5000
  0
POLYLINE
  8
29
 66
1
 10
0.0000
 20
0.0000
 30
0.0000
 40
3.6016
 41
3.6016
 70
0
  0
VERTEX
  8
29
 10
64.7700
 20
28.6792
 30
0.0000
 42
1.0000
  0
VERTEX
  8
29
 10
64.7700
 20
32.2808
 30
0.0000
 42
1.0000
  0
VERTEX
  8
29
 10
64.7700
 20
28.6792
 30
0.0000
  0
SEQEND
  8
0
  0
POLYLINE
  8
30
 66
1
 10
0.0000
 20
0.0000
 30
0.0000
 40
3.6016
 41
3.6016
 70
0
  0
VERTEX
  8
30
 10
64.7700
 20
28.6792
 30
0.0000
 42
1.0000
  0
VERTEX
  8
30
 10
64.7700
 20
32.2808
 30
0.0000
 42
1.0000
  0
VERTEX
  8
30
 10
64.7700
 20
28.6792
 30
0.0000
  0
SEQEND
  8
0
  0
CIRCLE
  8
20
 10
64.7700
 20
50.8000
 30
0.0000
 40
3.5000
  0
POLYLINE
  8
29
 66
1
 10
0.0000
 20
0.0000
 30
0.0000
 40
3.6016
 41
3.6016
 70
0
  0
VERTEX
  8
29
 10
64.7700
 20
48.9992
 30
0.0000
 42
1.0000
  0
VERTEX
  8
29
 10
64.7700
 20
52.6008
 30
0.0000
 42
1.0000
  0
VERTEX
  8
29
 10
64.7700
 20
48.9992
 30
0.0000
  0
SEQEND
  8
0
  0
POLYLINE
  8
30
 66
1
 10
0.0000
 20
0.0000
 30
0.0000
 40
3.6016
 41
3.6016
 70
0
  0
VERTEX
  8
30
 10
64.7700
 20
48.9992
 30
0.0000
 42
1.0000
  0
VERTEX
  8
30
 10
64.7700
 20
52.6008
 30
0.0000
 42
1.0000
  0
VERTEX
  8
30
 10
64.7700
 20
48.9992
 30
0.0000
  0
SEQEND
  8
0
  0
CIRCLE
  8
20
 10
64.7700
 20
71.1200
 30
0.0000
 40
3.5000
  0
POLYLINE
  8
29
 66
1
 10
0.0000
 20
0.0000
 30
0.0000
 40
3.6016
 41
3.6016
 70
0
  0
VERTEX
  8
29
 10
64.7700
 20
69.3192
 30
0.0000
 42
1.0000
  0
VERTEX
  8
29
 10
64.7700
 20
72.9208
 30
0.0000
 42
1.0000
  0
VERTEX
  8
29
 10
64.7700
 20
69.3192
 30
0.0000
  0
SEQEND
  8
0
  0
POLYLINE
  8
30
 66
1
 10
0.0000
 20
0.0000
 30
0.0000
 40
3.6016
 41
3.6016
 70
0
  0
VERTEX
  8
30
 10
64.7700
 20
69.3192
 30
0.0000
 42
1.0000
  0
VERTEX
  8
30
 10
64.7700
 20
72.9208
 30
0.0000
 42
1.0000
  0
VERTEX
  8
30
 10
64.7700
 20
69.3192
 30
0.0000
  0
SEQEND
  8
0
  0
CIRCLE
  8
20
 10
88.9000
 20
60.9600
 30
0.0000
 40
3.5000
  0
POLYLINE
  8
29
 66
1
 10
0.0000
 20
0.0000
 30
0.0000
 40
3.6016
 41
3.6016
 70
0
  0
VERTEX
  8
29
 10
88.9000
 20
59.1592
 30
0.0000
 42
1.0000
  0
VERTEX
  8
29
 10
88.9000
 20
62.7608
 30
0.0000
 42
1.0000
  0
VERTEX
  8
29
 10
88.9000
 20
59.1592
 30
0.0000
  0
SEQEND
  8
0
  0
POLYLINE
  8
30
 66
1
 10
0.0000
 20
0.0000
 30
0.0000
 40
3.6016
 41
3.6016
 70
0
  0
VERTEX
  8
30
 10
88.9000
 20
59.1592
 30
0.0000
 42
1.0000
  0
VERTEX
  8
30
 10
88.9000
 20
62.7608
 30
0.0000
 42
1.0000
  0
VERTEX
  8
30
 10
88.9000
 20
59.1592
 30
0.0000
  0
SEQEND
  8
0
  0
CIRCLE
  8
20
 10
88.9000
 20
20.3200
 30
0.0000
 40
3.5000
  0
POLYLINE
  8
29
 66
1
 10
0.0000
 20
0.0000
 30
0.0000
 40
3.6016
 41
3.6016
 70
0
  0
VERTEX
  8
29
 10
88.9000
 20
18.5192
 30
0.0000
 42
1.0000
  0
VERTEX
  8
29
 10
88.9000
 20
22.1208
 30
0.0000
 42
1.0000
  0
VERTEX
  8
29
 10
88.9000
 20
18.5192
 30
0.0000
  0
SEQEND
  8
0
  0
POLYLINE
  8
30
 66
1
 10
0.0000
 20
0.0000
 30
0.0000
 40
3.6016
 41
3.6016
 70
0
  0
VERTEX
  8
30
 10
88.9000
 20
18.5192
 30
0.0000
 42
1.0000
  0
VERTEX
  8
30
 10
88.9000
 20
22.1208
 30
0.0000
 42
1.0000
  0
VERTEX
  8
30
 10
88.9000
 20
18.5192
 30
0.0000
  0
SEQEND
  8
0
  0
CIRCLE
  8
20
 10
113.0300
 20
15.2400
 30
0.0000
 40
3.5000
  0
POLYLINE
  8
29
 66
1
 10
0.0000
 20
0.0000
 30
0.0000
 40
3.6016
 41
3.6016
 70
0
  0
VERTEX
  8
29
 10
113.0300
 20
13.4392
 30
0.0000
 42
1.0000
  0
VERTEX
  8
29
 10
113.0300
 20
17.0408
 30
0.0000
 42
1.0000
  0
VERTEX
  8
29
 10
113.0300
 20
13.4392
 30
0.0000
  0
SEQEND
  8
0
  0
POLYLINE
  8
30
 66
1
 10
0.0000
 20
0.0000
 30
0.0000
 40
3.6016
 41
3.6016
 70
0
  0
VERTEX
  8
30
 10
113.0300
 20
13.4392
 30
0.0000
 42
1.0000
  0
VERTEX
  8
30
 10
113.0300
 20
17.0408
 30
0.0000
 42
1.0000
  0
VERTEX
  8
30
 10
113.0300
 20
13.4392
 30
0.0000
  0
SEQEND
  8
0
  0
CIRCLE
  8
20
 10
113.0300
 20
66.0400
 30
0.0000
 40
3.5000
  0
POLYLINE
  8
29
 66
1
 10
0.0000
 20
0.0000
 30
0.0000
 40
3.6016
 41
3.6016
 70
0
  0
VERTEX
  8
29
 10
113.0300
 20
64.2392
 30
0.0000
 42
1.0000
  0
VERTEX
  8
29
 10
113.0300
 20
67.8408
 30
0.0000
 42
1.0000
  0
VERTEX
  8
29
 10
113.0300
 20
64.2392
 30
0.0000
  0
SEQEND
  8
0
  0
POLYLINE
  8
30
 66
1
 10
0.0000
 20
0.0000
 30
0.0000
 40
3.6016
 41
3.6016
 70
0
  0
VERTEX
  8
30
 10
113.0300
 20
64.2392
 30
0.0000
 42
1.0000
  0
VERTEX
  8
30
 10
113.0300
 20
67.8408
 30
0.0000
 42
1.0000
  0
VERTEX
  8
30
 10
113.0300
 20
64.2392
 30
0.0000
  0
SEQEND
  8
0
  0
CIRCLE
  8
20
 10
109.2200
 20
51.0540
 30
0.0000
 40
1.5000
  0
POLYLINE
  8
29
 66
1
 10
0.0000
 20
0.0000
 30
0.0000
 40
1.6016
 41
1.6016
 70
0
  0
VERTEX
  8
29
 10
109.2200
 20
50.2532
 30
0.0000
 42
1.0000
  0
VERTEX
  8
29
 10
109.2200
 20
51.8548
 30
0.0000
 42
1.0000
  0
VERTEX
  8
29
 10
109.2200
 20
50.2532
 30
0.0000
  0
SEQEND
  8
0
  0
POLYLINE
  8
30
 66
1
 10
0.0000
 20
0.0000
 30
0.0000
 40
1.6016
 41
1.6016
 70
0
  0
VERTEX
  8
30
 10
109.2200
 20
50.2532
 30
0.0000
 42
1.0000
  0
VERTEX
  8
30
 10
109.2200
 20
51.8548
 30
0.0000
 42
1.0000
  0
VERTEX
  8
30
 10
109.2200
 20
50.2532
 30
0.0000
  0
SEQEND
  8
0
  0
CIRCLE
  8
20
 10
108.9660
 20
30.4800
 30
0.0000
 40
1.5000
  0
POLYLINE
  8
29
 66
1
 10
0.0000
 20
0.0000
 30
0.0000
 40
1.6016
 41
1.6016
 70
0
  0
VERTEX
  8
29
 10
108.9660
 20
29.6792
 30
0.0000
 42
1.0000
  0
VERTEX
  8
29
 10
108.9660
 20
31.2808
 30
0.0000
 42
1.0000
  0
VERTEX
  8
29
 10
108.9660
 20
29.6792
 30
0.0000
  0
SEQEND
  8
0
  0
POLYLINE
  8
30
 66
1
 10
0.0000
 20
0.0000
 30
0.0000
 40
1.6016
 41
1.6016
 70
0
  0
VERTEX
  8
30
 10
108.9660
 20
29.6792
 30
0.0000
 42
1.0000
  0
VERTEX
  8
30
 10
108.9660
 20
31.2808
 30
0.0000
 42
1.0000
  0
VERTEX
  8
30
 10
108.9660
 20
29.6792
 30
0.0000
  0
SEQEND
  8
0
  0
ENDSEC
  0
EOF
