G75*
%MOIN*%
%OFA0B0*%
%FSLAX24Y24*%
%IPPOS*%
%LPD*%
%AMOC8*
5,1,8,0,0,1.08239X$1,22.5*
%
%ADD10C,0.1340*%
%ADD11C,0.0753*%
%ADD12C,0.1661*%
%ADD13OC8,0.0714*%
%ADD14R,0.0820X0.0820*%
%ADD15OC8,0.1261*%
%ADD16R,0.0474X0.0513*%
%ADD17R,0.0640X0.0640*%
%ADD18C,0.0640*%
%ADD19R,0.0100X0.0100*%
%ADD20R,0.0100X0.0200*%
%ADD21R,0.0100X0.0300*%
%ADD22R,0.0100X0.0400*%
%ADD23R,0.0100X0.0500*%
%ADD24R,0.0100X0.0600*%
%ADD25R,0.0100X0.0700*%
%ADD26R,0.0100X0.0800*%
%ADD27R,0.0100X0.1100*%
%ADD28R,0.0100X0.1200*%
%ADD29R,0.0100X0.1300*%
%ADD30R,0.0100X0.0900*%
%ADD31R,0.0100X0.1800*%
%ADD32R,0.0100X0.1600*%
%ADD33R,0.0100X0.1000*%
%ADD34R,0.0100X0.2100*%
D10*
X005700Y001850D03*
X044900Y001850D03*
X044900Y030250D03*
X005700Y030250D03*
D11*
X005141Y026150D03*
X006322Y026150D03*
X009669Y026150D03*
X010541Y026150D03*
X011722Y026150D03*
X015069Y026150D03*
X016041Y026150D03*
X017222Y026150D03*
X020569Y026150D03*
X020569Y022150D03*
X017222Y022150D03*
X016041Y022150D03*
X015069Y022150D03*
X011722Y022150D03*
X010541Y022150D03*
X009669Y022150D03*
X006322Y022150D03*
X005141Y022150D03*
X005041Y018150D03*
X006222Y018150D03*
X009569Y018150D03*
X010541Y018150D03*
X011722Y018150D03*
X015069Y018150D03*
X016041Y018150D03*
X017222Y018150D03*
X020569Y018150D03*
X020569Y014150D03*
X017222Y014150D03*
X016041Y014150D03*
X015069Y014150D03*
X011722Y014150D03*
X010541Y014150D03*
X009569Y014150D03*
X006222Y014150D03*
X005041Y014150D03*
X005041Y010150D03*
X006222Y010150D03*
X009569Y010150D03*
X010541Y010150D03*
X011722Y010150D03*
X015069Y010150D03*
X016041Y010150D03*
X017222Y010150D03*
X020569Y010150D03*
X020569Y006150D03*
X017222Y006150D03*
X016041Y006150D03*
X015069Y006150D03*
X011722Y006150D03*
X010541Y006150D03*
X009569Y006150D03*
X006222Y006150D03*
X005041Y006150D03*
D12*
X007600Y006150D03*
X013100Y006150D03*
X018600Y006150D03*
X018600Y010150D03*
X013100Y010150D03*
X007600Y010150D03*
X007600Y014150D03*
X013100Y014150D03*
X018600Y014150D03*
X018600Y018150D03*
X013100Y018150D03*
X007600Y018150D03*
X007700Y022150D03*
X013100Y022150D03*
X018600Y022150D03*
X018600Y026150D03*
X013100Y026150D03*
X007700Y026150D03*
D13*
X004100Y026150D03*
X004100Y025150D03*
X004100Y024150D03*
X004100Y023150D03*
X004100Y022150D03*
X004100Y021150D03*
X004100Y020150D03*
X004100Y019150D03*
X004100Y018150D03*
X004100Y017150D03*
X004100Y015150D03*
X004100Y014150D03*
X004100Y013150D03*
X004100Y012150D03*
X004100Y011150D03*
X004100Y010150D03*
X004100Y009150D03*
X004100Y008150D03*
X004100Y007150D03*
X004100Y006150D03*
X009100Y001150D03*
X010100Y001150D03*
X011100Y001150D03*
X012100Y001150D03*
X013100Y001150D03*
X014100Y001150D03*
X015100Y001150D03*
X016100Y001150D03*
X017100Y001150D03*
X018100Y001150D03*
X020100Y001150D03*
X021100Y001150D03*
X022100Y001150D03*
X023100Y001150D03*
X024100Y001150D03*
X025100Y001150D03*
X026100Y001150D03*
X027100Y001150D03*
X028100Y001150D03*
X029100Y001150D03*
X031100Y001150D03*
X032100Y001150D03*
X033100Y001150D03*
X034100Y001150D03*
X035100Y001150D03*
X036100Y001150D03*
X037100Y001150D03*
X038100Y001150D03*
X039100Y001150D03*
X040100Y001150D03*
X040100Y031150D03*
X039100Y031150D03*
X038100Y031150D03*
X037100Y031150D03*
X036100Y031150D03*
X035100Y031150D03*
X034100Y031150D03*
X033100Y031150D03*
X032100Y031150D03*
X031100Y031150D03*
X029100Y031150D03*
X028100Y031150D03*
X027100Y031150D03*
X026100Y031150D03*
X025100Y031150D03*
X024100Y031150D03*
X023100Y031150D03*
X022100Y031150D03*
X021100Y031150D03*
X020100Y031150D03*
X018100Y031150D03*
X017100Y031150D03*
X016100Y031150D03*
X015100Y031150D03*
X014100Y031150D03*
X013100Y031150D03*
X012100Y031150D03*
X011100Y031150D03*
X010100Y031150D03*
X009100Y031150D03*
D14*
X022844Y029134D03*
X022844Y028150D03*
X022844Y027166D03*
X022844Y021134D03*
X022844Y020150D03*
X022844Y019166D03*
X022844Y013134D03*
X022844Y012150D03*
X022844Y011166D03*
X022844Y005134D03*
X022844Y004150D03*
X022844Y003166D03*
X032344Y007166D03*
X032344Y008150D03*
X032344Y009134D03*
X041844Y007134D03*
X041844Y006150D03*
X041844Y005166D03*
X032344Y023166D03*
X032344Y024150D03*
X032344Y025134D03*
X041844Y025166D03*
X041844Y026150D03*
X041844Y027134D03*
D15*
X044600Y027882D03*
X044600Y024418D03*
X035100Y025882D03*
X035100Y022418D03*
X025600Y021882D03*
X025600Y018418D03*
X025600Y013882D03*
X025600Y010418D03*
X025600Y005882D03*
X025600Y002418D03*
X035100Y006418D03*
X035100Y009882D03*
X044600Y007882D03*
X044600Y004418D03*
X025600Y026418D03*
X025600Y029882D03*
D16*
X040165Y020250D03*
X040835Y020250D03*
X040935Y012150D03*
X040265Y012150D03*
D17*
X042500Y012150D03*
X042600Y020250D03*
D18*
X043600Y020250D03*
X043500Y012150D03*
D19*
X038100Y015550D03*
X038200Y015750D03*
X038400Y015950D03*
X038300Y016350D03*
X038200Y016350D03*
X038000Y016350D03*
X038000Y016550D03*
X037900Y016550D03*
X037700Y016650D03*
X037600Y016850D03*
X037800Y017050D03*
X037700Y017150D03*
X037800Y017250D03*
X037900Y017250D03*
X038000Y017350D03*
X037900Y017450D03*
X038100Y017450D03*
X038100Y017650D03*
X038000Y017650D03*
X037800Y017650D03*
X037700Y017550D03*
X037600Y017550D03*
X037500Y017550D03*
X037400Y017650D03*
X037400Y017850D03*
X037300Y018050D03*
X037000Y018050D03*
X036900Y017750D03*
X036700Y017750D03*
X036700Y017350D03*
X036700Y017050D03*
X036600Y016950D03*
X036900Y017050D03*
X037300Y017050D03*
X037400Y017350D03*
X037300Y017450D03*
X037200Y017550D03*
X037700Y017750D03*
X037700Y017950D03*
X037700Y017350D03*
X038200Y017150D03*
X038100Y016950D03*
X038000Y016950D03*
X037900Y016950D03*
X038300Y016850D03*
X038500Y016550D03*
X038400Y016450D03*
X037800Y016150D03*
X037700Y015950D03*
X037600Y015850D03*
X037700Y015650D03*
X037700Y015450D03*
X037400Y015350D03*
X037200Y015250D03*
X037200Y015450D03*
X037300Y015550D03*
X037200Y015650D03*
X037000Y015850D03*
X037100Y016050D03*
X037200Y016150D03*
X037100Y016250D03*
X037000Y016150D03*
X036800Y016050D03*
X036800Y016350D03*
X037000Y016450D03*
X036800Y016650D03*
X036600Y016450D03*
X036200Y016050D03*
X036100Y016050D03*
X036000Y016050D03*
X036000Y016250D03*
X035900Y016350D03*
X036000Y016450D03*
X035900Y016550D03*
X035700Y016550D03*
X035700Y016350D03*
X035600Y016150D03*
X035400Y016150D03*
X035300Y016250D03*
X035300Y016450D03*
X035200Y016450D03*
X035000Y016650D03*
X034900Y016550D03*
X034700Y016550D03*
X034600Y016450D03*
X034800Y016350D03*
X034700Y016150D03*
X035000Y016150D03*
X035200Y016050D03*
X035400Y015950D03*
X035200Y015750D03*
X035000Y015650D03*
X034900Y015650D03*
X034800Y015650D03*
X034800Y015850D03*
X035000Y015850D03*
X035200Y015450D03*
X035400Y015450D03*
X035500Y015550D03*
X035600Y015450D03*
X035800Y015750D03*
X035900Y015750D03*
X036100Y015850D03*
X036400Y015750D03*
X036300Y015550D03*
X036000Y015450D03*
X035700Y015950D03*
X035800Y016050D03*
X035600Y016750D03*
X035300Y016950D03*
X035200Y016750D03*
X035100Y016750D03*
X035100Y017050D03*
X035200Y017150D03*
X034800Y017050D03*
X034500Y017150D03*
X034600Y017350D03*
X034600Y017550D03*
X034500Y017650D03*
X034400Y017450D03*
X034200Y017450D03*
X034100Y017650D03*
X034000Y017650D03*
X034000Y017850D03*
X033900Y017950D03*
X034000Y018050D03*
X034000Y018250D03*
X033800Y018050D03*
X033700Y018050D03*
X033600Y017950D03*
X033500Y018050D03*
X033300Y018050D03*
X033300Y017850D03*
X033000Y017950D03*
X032900Y017850D03*
X032800Y018050D03*
X032800Y018250D03*
X032900Y018350D03*
X033000Y018450D03*
X033000Y018250D03*
X033100Y018150D03*
X033200Y018350D03*
X033300Y018350D03*
X033200Y018550D03*
X033200Y018750D03*
X033300Y018750D03*
X033400Y018750D03*
X033500Y018750D03*
X033600Y018850D03*
X033700Y018650D03*
X033800Y018650D03*
X033900Y018850D03*
X033800Y019050D03*
X033900Y019250D03*
X034200Y019150D03*
X034300Y019150D03*
X034400Y019150D03*
X034500Y019150D03*
X034500Y018950D03*
X034600Y018850D03*
X034700Y018850D03*
X034800Y018850D03*
X035100Y018350D03*
X035300Y018250D03*
X036100Y018350D03*
X036200Y018350D03*
X036300Y018350D03*
X036300Y018150D03*
X036300Y017950D03*
X034400Y018250D03*
X034300Y018150D03*
X034200Y018450D03*
X033600Y018350D03*
X033100Y018850D03*
X033200Y018950D03*
X033300Y018950D03*
X033300Y019150D03*
X033100Y019350D03*
X033000Y019350D03*
X032900Y019150D03*
X033000Y018750D03*
X032500Y018550D03*
X032400Y018550D03*
X032300Y018450D03*
X032100Y018350D03*
X031900Y018350D03*
X032000Y018150D03*
X032200Y018150D03*
X032100Y017850D03*
X032200Y017750D03*
X032000Y017650D03*
X032400Y017550D03*
X032900Y017550D03*
X033000Y017450D03*
X033100Y017350D03*
X033100Y017550D03*
X032900Y017250D03*
X033300Y017050D03*
X033400Y017150D03*
X033500Y016950D03*
X033300Y016850D03*
X033300Y016650D03*
X033400Y016650D03*
X033700Y016550D03*
X033900Y016550D03*
X034000Y016450D03*
X034200Y016450D03*
X034300Y016350D03*
X034400Y016550D03*
X034500Y016650D03*
X034200Y016650D03*
X034200Y016850D03*
X033700Y016850D03*
X033800Y016350D03*
X033700Y016250D03*
X034400Y016050D03*
X033000Y016650D03*
X033500Y017350D03*
X033500Y017550D03*
X033600Y017650D03*
X033700Y017750D03*
X033800Y017450D03*
X034000Y017350D03*
X032300Y018750D03*
X032200Y018750D03*
X032100Y018650D03*
X031700Y018550D03*
X031700Y018750D03*
X031500Y018950D03*
X031500Y019150D03*
X031400Y019250D03*
X031500Y019350D03*
X031200Y019050D03*
X031200Y018850D03*
X031300Y018850D03*
X031100Y018750D03*
X031100Y018550D03*
X031200Y018450D03*
X031400Y018050D03*
X031800Y019050D03*
X032100Y019250D03*
X032200Y019250D03*
X032300Y019250D03*
X032400Y019250D03*
X032000Y019450D03*
X034200Y018950D03*
D20*
X034100Y018800D03*
X034000Y018800D03*
X033800Y018900D03*
X033700Y018900D03*
X033500Y018900D03*
X033400Y018900D03*
X033400Y019200D03*
X033600Y019200D03*
X034000Y019200D03*
X034200Y018700D03*
X034300Y018700D03*
X034400Y018700D03*
X034500Y018600D03*
X034700Y018500D03*
X034800Y018400D03*
X034900Y018400D03*
X035000Y018400D03*
X035200Y018300D03*
X034900Y018800D03*
X034400Y018000D03*
X034100Y018000D03*
X033600Y018600D03*
X033200Y018100D03*
X032900Y018100D03*
X033000Y017700D03*
X033300Y017500D03*
X033900Y017200D03*
X034000Y017000D03*
X034000Y016700D03*
X033600Y016400D03*
X033400Y016800D03*
X033200Y016700D03*
X032500Y016800D03*
X032400Y016800D03*
X032300Y016800D03*
X034400Y017100D03*
X034600Y016700D03*
X035000Y016400D03*
X035100Y016200D03*
X034800Y016100D03*
X035400Y015700D03*
X035600Y015900D03*
X036700Y015800D03*
X036800Y015700D03*
X036900Y015600D03*
X037100Y015400D03*
X037600Y015300D03*
X037800Y015200D03*
X038000Y015600D03*
X037800Y015700D03*
X038000Y016000D03*
X037900Y016100D03*
X037700Y016200D03*
X037600Y016300D03*
X037500Y016200D03*
X037400Y017000D03*
X037600Y017200D03*
X037100Y017100D03*
X036800Y017500D03*
X037000Y017700D03*
X037100Y017900D03*
X036900Y018100D03*
X036800Y018100D03*
X037400Y018100D03*
X038200Y017500D03*
X038300Y017200D03*
X036100Y018100D03*
X036000Y018400D03*
X034300Y017600D03*
X034900Y017200D03*
X035000Y017200D03*
X035400Y016800D03*
X035500Y016700D03*
X038300Y015700D03*
X032100Y018500D03*
D21*
X033200Y017150D03*
X032900Y016950D03*
X032900Y016550D03*
X033800Y017150D03*
X034600Y018550D03*
X035000Y018850D03*
X035900Y018450D03*
X037000Y015550D03*
X037500Y015250D03*
X037300Y015050D03*
X037800Y014750D03*
D22*
X037600Y014900D03*
X037500Y015800D03*
X036700Y016300D03*
X036400Y016200D03*
X037100Y016600D03*
X035800Y018500D03*
X035400Y018700D03*
X035200Y018800D03*
X035100Y018800D03*
X034500Y018000D03*
X033100Y016800D03*
D23*
X033000Y017050D03*
X032800Y017150D03*
X032600Y016950D03*
X032800Y016550D03*
X034600Y017950D03*
X034700Y017950D03*
X034900Y017850D03*
X035700Y018550D03*
X035600Y018650D03*
X035500Y018650D03*
X035300Y018750D03*
X036600Y015950D03*
X037400Y014950D03*
D24*
X037300Y016500D03*
X037200Y016600D03*
X036500Y017200D03*
X035100Y017700D03*
X035000Y017800D03*
X034800Y017900D03*
X036400Y018100D03*
X036600Y018000D03*
X032700Y016900D03*
D25*
X035200Y017650D03*
X036500Y018050D03*
X037500Y014550D03*
D26*
X036500Y016000D03*
X037400Y016300D03*
X035500Y017600D03*
X035400Y017600D03*
X035300Y017600D03*
D27*
X035600Y017550D03*
X036300Y017150D03*
D28*
X036200Y017200D03*
X035800Y017400D03*
X035700Y017500D03*
D29*
X035900Y017350D03*
X036000Y017350D03*
X036100Y017250D03*
D30*
X036400Y017150D03*
X038000Y014750D03*
D31*
X037600Y013600D03*
D32*
X037700Y013900D03*
D33*
X037800Y013100D03*
D34*
X037900Y014150D03*
M02*
