%
M48
M72
T01C0.0140
T02C0.0320
T03C0.0394
T04C0.0433
T05C0.0787
T06C0.1181
T07C0.1260
%
T01
X40140Y19610
T02
X42600Y20250
X43600Y20250
X43500Y12150
X42500Y12150
T03
X41844Y7134
X41844Y6150
X41844Y5166
X40100Y1150
X39100Y1150
X38100Y1150
X37100Y1150
X36100Y1150
X35100Y1150
X34100Y1150
X33100Y1150
X32100Y1150
X31100Y1150
X29100Y1150
X28100Y1150
X27100Y1150
X26100Y1150
X25100Y1150
X24100Y1150
X23100Y1150
X22100Y1150
X21100Y1150
X20100Y1150
X18100Y1150
X17100Y1150
X16100Y1150
X15100Y1150
X14100Y1150
X13100Y1150
X12100Y1150
X11100Y1150
X10100Y1150
X9100Y1150
X4100Y6150
X4100Y7150
X4100Y8150
X4100Y9150
X4100Y10150
X4100Y11150
X4100Y12150
X4100Y13150
X4100Y14150
X4100Y15150
X4100Y17150
X4100Y18150
X4100Y19150
X4100Y20150
X4100Y21150
X4100Y22150
X4100Y23150
X4100Y24150
X4100Y25150
X4100Y26150
X9100Y31150
X10100Y31150
X11100Y31150
X12100Y31150
X13100Y31150
X14100Y31150
X15100Y31150
X16100Y31150
X17100Y31150
X18100Y31150
X20100Y31150
X21100Y31150
X22100Y31150
X23100Y31150
X24100Y31150
X25100Y31150
X26100Y31150
X27100Y31150
X28100Y31150
X29100Y31150
X31100Y31150
X32100Y31150
X33100Y31150
X34100Y31150
X35100Y31150
X36100Y31150
X37100Y31150
X38100Y31150
X39100Y31150
X40100Y31150
X41844Y27134
X41844Y26150
X41844Y25166
X32344Y25134
X32344Y24150
X32344Y23166
X22844Y21134
X22844Y20150
X22844Y19166
X22844Y13134
X22844Y12150
X22844Y11166
X22844Y5134
X22844Y4150
X22844Y3166
X32344Y7166
X32344Y8150
X32344Y9134
X22844Y27166
X22844Y28150
X22844Y29134
T04
X20569Y26150
X17222Y26150
X16041Y26150
X15069Y26150
X11722Y26150
X10541Y26150
X9669Y26150
X6322Y26150
X5141Y26150
X5141Y22150
X6322Y22150
X9669Y22150
X10541Y22150
X11722Y22150
X15069Y22150
X16041Y22150
X17222Y22150
X20569Y22150
X20569Y18150
X17222Y18150
X16041Y18150
X15069Y18150
X11722Y18150
X10541Y18150
X9569Y18150
X6222Y18150
X5041Y18150
X5041Y14150
X6222Y14150
X9569Y14150
X10541Y14150
X11722Y14150
X15069Y14150
X16041Y14150
X17222Y14150
X20569Y14150
X20569Y10150
X17222Y10150
X16041Y10150
X15069Y10150
X11722Y10150
X10541Y10150
X9569Y10150
X6222Y10150
X5041Y10150
X5041Y6150
X6222Y6150
X9569Y6150
X10541Y6150
X11722Y6150
X15069Y6150
X16041Y6150
X17222Y6150
X20569Y6150
T05
X25600Y5882
X25600Y2418
X35100Y6418
X35100Y9882
X44600Y7882
X44600Y4418
X25600Y10418
X25600Y13882
X25600Y18418
X25600Y21882
X25600Y26418
X25600Y29882
X35100Y25882
X35100Y22418
X44600Y24418
X44600Y27882
T06
X18600Y26150
X13100Y26150
X7700Y26150
X7700Y22150
X13100Y22150
X18600Y22150
X18600Y18150
X13100Y18150
X7600Y18150
X7600Y14150
X13100Y14150
X18600Y14150
X18600Y10150
X13100Y10150
X7600Y10150
X7600Y6150
X13100Y6150
X18600Y6150
T07
X5700Y1850
X44900Y1850
X44900Y30250
X5700Y30250
M30
