G75*
%MOIN*%
%OFA0B0*%
%FSLAX24Y24*%
%IPPOS*%
%LPD*%
%AMOC8*
5,1,8,0,0,1.08239X$1,22.5*
%
%ADD10C,0.0000*%
D10*
X003600Y000350D02*
X003600Y031700D01*
X003602Y031723D01*
X003607Y031746D01*
X003616Y031768D01*
X003629Y031788D01*
X003644Y031806D01*
X003662Y031821D01*
X003682Y031834D01*
X003704Y031843D01*
X003727Y031848D01*
X003750Y031850D01*
X046700Y031850D01*
X046737Y031848D01*
X046773Y031842D01*
X046808Y031833D01*
X046842Y031820D01*
X046875Y031803D01*
X046906Y031783D01*
X046934Y031760D01*
X046960Y031734D01*
X046983Y031706D01*
X047003Y031675D01*
X047020Y031642D01*
X047033Y031608D01*
X047042Y031573D01*
X047048Y031537D01*
X047050Y031500D01*
X047050Y000570D01*
X047048Y000534D01*
X047042Y000498D01*
X047032Y000463D01*
X047018Y000429D01*
X047001Y000397D01*
X046981Y000367D01*
X046958Y000339D01*
X046932Y000314D01*
X046904Y000292D01*
X046873Y000272D01*
X046841Y000256D01*
X046807Y000244D01*
X046772Y000235D01*
X046736Y000229D01*
X046700Y000228D01*
X046700Y000229D02*
X003750Y000229D01*
X003729Y000228D01*
X003708Y000231D01*
X003687Y000237D01*
X003668Y000246D01*
X003650Y000258D01*
X003635Y000273D01*
X003622Y000290D01*
X003612Y000309D01*
X003605Y000329D01*
X003601Y000350D01*
X005070Y001850D02*
X005072Y001900D01*
X005078Y001950D01*
X005088Y001999D01*
X005102Y002047D01*
X005119Y002094D01*
X005140Y002139D01*
X005165Y002183D01*
X005193Y002224D01*
X005225Y002263D01*
X005259Y002300D01*
X005296Y002334D01*
X005336Y002364D01*
X005378Y002391D01*
X005422Y002415D01*
X005468Y002436D01*
X005515Y002452D01*
X005563Y002465D01*
X005613Y002474D01*
X005662Y002479D01*
X005713Y002480D01*
X005763Y002477D01*
X005812Y002470D01*
X005861Y002459D01*
X005909Y002444D01*
X005955Y002426D01*
X006000Y002404D01*
X006043Y002378D01*
X006084Y002349D01*
X006123Y002317D01*
X006159Y002282D01*
X006191Y002244D01*
X006221Y002204D01*
X006248Y002161D01*
X006271Y002117D01*
X006290Y002071D01*
X006306Y002023D01*
X006318Y001974D01*
X006326Y001925D01*
X006330Y001875D01*
X006330Y001825D01*
X006326Y001775D01*
X006318Y001726D01*
X006306Y001677D01*
X006290Y001629D01*
X006271Y001583D01*
X006248Y001539D01*
X006221Y001496D01*
X006191Y001456D01*
X006159Y001418D01*
X006123Y001383D01*
X006084Y001351D01*
X006043Y001322D01*
X006000Y001296D01*
X005955Y001274D01*
X005909Y001256D01*
X005861Y001241D01*
X005812Y001230D01*
X005763Y001223D01*
X005713Y001220D01*
X005662Y001221D01*
X005613Y001226D01*
X005563Y001235D01*
X005515Y001248D01*
X005468Y001264D01*
X005422Y001285D01*
X005378Y001309D01*
X005336Y001336D01*
X005296Y001366D01*
X005259Y001400D01*
X005225Y001437D01*
X005193Y001476D01*
X005165Y001517D01*
X005140Y001561D01*
X005119Y001606D01*
X005102Y001653D01*
X005088Y001701D01*
X005078Y001750D01*
X005072Y001800D01*
X005070Y001850D01*
X044270Y001850D02*
X044272Y001900D01*
X044278Y001950D01*
X044288Y001999D01*
X044302Y002047D01*
X044319Y002094D01*
X044340Y002139D01*
X044365Y002183D01*
X044393Y002224D01*
X044425Y002263D01*
X044459Y002300D01*
X044496Y002334D01*
X044536Y002364D01*
X044578Y002391D01*
X044622Y002415D01*
X044668Y002436D01*
X044715Y002452D01*
X044763Y002465D01*
X044813Y002474D01*
X044862Y002479D01*
X044913Y002480D01*
X044963Y002477D01*
X045012Y002470D01*
X045061Y002459D01*
X045109Y002444D01*
X045155Y002426D01*
X045200Y002404D01*
X045243Y002378D01*
X045284Y002349D01*
X045323Y002317D01*
X045359Y002282D01*
X045391Y002244D01*
X045421Y002204D01*
X045448Y002161D01*
X045471Y002117D01*
X045490Y002071D01*
X045506Y002023D01*
X045518Y001974D01*
X045526Y001925D01*
X045530Y001875D01*
X045530Y001825D01*
X045526Y001775D01*
X045518Y001726D01*
X045506Y001677D01*
X045490Y001629D01*
X045471Y001583D01*
X045448Y001539D01*
X045421Y001496D01*
X045391Y001456D01*
X045359Y001418D01*
X045323Y001383D01*
X045284Y001351D01*
X045243Y001322D01*
X045200Y001296D01*
X045155Y001274D01*
X045109Y001256D01*
X045061Y001241D01*
X045012Y001230D01*
X044963Y001223D01*
X044913Y001220D01*
X044862Y001221D01*
X044813Y001226D01*
X044763Y001235D01*
X044715Y001248D01*
X044668Y001264D01*
X044622Y001285D01*
X044578Y001309D01*
X044536Y001336D01*
X044496Y001366D01*
X044459Y001400D01*
X044425Y001437D01*
X044393Y001476D01*
X044365Y001517D01*
X044340Y001561D01*
X044319Y001606D01*
X044302Y001653D01*
X044288Y001701D01*
X044278Y001750D01*
X044272Y001800D01*
X044270Y001850D01*
X044270Y030250D02*
X044272Y030300D01*
X044278Y030350D01*
X044288Y030399D01*
X044302Y030447D01*
X044319Y030494D01*
X044340Y030539D01*
X044365Y030583D01*
X044393Y030624D01*
X044425Y030663D01*
X044459Y030700D01*
X044496Y030734D01*
X044536Y030764D01*
X044578Y030791D01*
X044622Y030815D01*
X044668Y030836D01*
X044715Y030852D01*
X044763Y030865D01*
X044813Y030874D01*
X044862Y030879D01*
X044913Y030880D01*
X044963Y030877D01*
X045012Y030870D01*
X045061Y030859D01*
X045109Y030844D01*
X045155Y030826D01*
X045200Y030804D01*
X045243Y030778D01*
X045284Y030749D01*
X045323Y030717D01*
X045359Y030682D01*
X045391Y030644D01*
X045421Y030604D01*
X045448Y030561D01*
X045471Y030517D01*
X045490Y030471D01*
X045506Y030423D01*
X045518Y030374D01*
X045526Y030325D01*
X045530Y030275D01*
X045530Y030225D01*
X045526Y030175D01*
X045518Y030126D01*
X045506Y030077D01*
X045490Y030029D01*
X045471Y029983D01*
X045448Y029939D01*
X045421Y029896D01*
X045391Y029856D01*
X045359Y029818D01*
X045323Y029783D01*
X045284Y029751D01*
X045243Y029722D01*
X045200Y029696D01*
X045155Y029674D01*
X045109Y029656D01*
X045061Y029641D01*
X045012Y029630D01*
X044963Y029623D01*
X044913Y029620D01*
X044862Y029621D01*
X044813Y029626D01*
X044763Y029635D01*
X044715Y029648D01*
X044668Y029664D01*
X044622Y029685D01*
X044578Y029709D01*
X044536Y029736D01*
X044496Y029766D01*
X044459Y029800D01*
X044425Y029837D01*
X044393Y029876D01*
X044365Y029917D01*
X044340Y029961D01*
X044319Y030006D01*
X044302Y030053D01*
X044288Y030101D01*
X044278Y030150D01*
X044272Y030200D01*
X044270Y030250D01*
X005070Y030250D02*
X005072Y030300D01*
X005078Y030350D01*
X005088Y030399D01*
X005102Y030447D01*
X005119Y030494D01*
X005140Y030539D01*
X005165Y030583D01*
X005193Y030624D01*
X005225Y030663D01*
X005259Y030700D01*
X005296Y030734D01*
X005336Y030764D01*
X005378Y030791D01*
X005422Y030815D01*
X005468Y030836D01*
X005515Y030852D01*
X005563Y030865D01*
X005613Y030874D01*
X005662Y030879D01*
X005713Y030880D01*
X005763Y030877D01*
X005812Y030870D01*
X005861Y030859D01*
X005909Y030844D01*
X005955Y030826D01*
X006000Y030804D01*
X006043Y030778D01*
X006084Y030749D01*
X006123Y030717D01*
X006159Y030682D01*
X006191Y030644D01*
X006221Y030604D01*
X006248Y030561D01*
X006271Y030517D01*
X006290Y030471D01*
X006306Y030423D01*
X006318Y030374D01*
X006326Y030325D01*
X006330Y030275D01*
X006330Y030225D01*
X006326Y030175D01*
X006318Y030126D01*
X006306Y030077D01*
X006290Y030029D01*
X006271Y029983D01*
X006248Y029939D01*
X006221Y029896D01*
X006191Y029856D01*
X006159Y029818D01*
X006123Y029783D01*
X006084Y029751D01*
X006043Y029722D01*
X006000Y029696D01*
X005955Y029674D01*
X005909Y029656D01*
X005861Y029641D01*
X005812Y029630D01*
X005763Y029623D01*
X005713Y029620D01*
X005662Y029621D01*
X005613Y029626D01*
X005563Y029635D01*
X005515Y029648D01*
X005468Y029664D01*
X005422Y029685D01*
X005378Y029709D01*
X005336Y029736D01*
X005296Y029766D01*
X005259Y029800D01*
X005225Y029837D01*
X005193Y029876D01*
X005165Y029917D01*
X005140Y029961D01*
X005119Y030006D01*
X005102Y030053D01*
X005088Y030101D01*
X005078Y030150D01*
X005072Y030200D01*
X005070Y030250D01*
M02*
